<?xml version="1.0" encoding="UTF-8" standalone="no"?>
<svg
   width="24"
   height="24"
   viewBox="0 0 24 24"
   fill="none"
   stroke="currentColor"
   stroke-width="2"
   stroke-linecap="round"
   stroke-linejoin="round"
   class="lucide lucide-heart-crack-icon lucide-heart-crack"
   version="1.1"
   id="svg2"
   sodipodi:docname="comment_heart-crack.svg"
   inkscape:version="1.3.2 (091e20e, 2023-11-25, custom)"
   xmlns:inkscape="http://www.inkscape.org/namespaces/inkscape"
   xmlns:sodipodi="http://sodipodi.sourceforge.net/DTD/sodipodi-0.dtd"
   xmlns="http://www.w3.org/2000/svg"
   xmlns:svg="http://www.w3.org/2000/svg">
  <defs
     id="defs2" />
  <sodipodi:namedview
     id="namedview2"
     pagecolor="#505050"
     bordercolor="#eeeeee"
     borderopacity="1"
     inkscape:showpageshadow="0"
     inkscape:pageopacity="0"
     inkscape:pagecheckerboard="0"
     inkscape:deskcolor="#505050"
     inkscape:zoom="8.40625"
     inkscape:cx="-12.550186"
     inkscape:cy="-9.2788104"
     inkscape:window-width="1920"
     inkscape:window-height="1017"
     inkscape:window-x="-8"
     inkscape:window-y="-8"
     inkscape:window-maximized="1"
     inkscape:current-layer="svg2" />
  <path
     d="M12.409 5.824c-.702.792-1.15 1.496-1.415 2.166l2.153 2.156a.5.5 0 0 1 0 .707l-2.293 2.293a.5.5 0 0 0 0 .707L12 15"
     id="path1"
     style="stroke:#c7cae7;stroke-opacity:1" />
  <path
     d="M13.508 20.313a2 2 0 0 1-3 .019L5 15c-1.5-1.5-3-3.2-3-5.5a5.5 5.5 0 0 1 9.591-3.677.6.6 0 0 0 .818.001A5.5 5.5 0 0 1 22 9.5c0 2.29-1.5 4-3 5.5z"
     id="path2"
     style="stroke:#c7cae7;stroke-opacity:1" />
</svg>
