<?xml version="1.0" encoding="UTF-8" standalone="no"?>
<svg
   width="24"
   height="24"
   viewBox="0 0 24 24"
   fill="none"
   stroke="currentColor"
   stroke-width="2"
   stroke-linecap="round"
   stroke-linejoin="round"
   class="lucide lucide-heart-crack-icon lucide-heart-crack"
   version="1.1"
   id="svg2"
   sodipodi:docname="comment_heart-crack-voted.svg"
   inkscape:version="1.3.2 (091e20e, 2023-11-25, custom)"
   xmlns:inkscape="http://www.inkscape.org/namespaces/inkscape"
   xmlns:sodipodi="http://sodipodi.sourceforge.net/DTD/sodipodi-0.dtd"
   xmlns:xlink="http://www.w3.org/1999/xlink"
   xmlns="http://www.w3.org/2000/svg"
   xmlns:svg="http://www.w3.org/2000/svg">
  <defs
     id="defs2">
    <linearGradient
       id="linearGradient1"
       inkscape:collect="always">
      <stop
         style="stop-color:#6a5cff;stop-opacity:1"
         offset="0"
         id="stop1" />
      <stop
         style="stop-color:#5c82ff;stop-opacity:1"
         offset="1"
         id="stop2" />
    </linearGradient>
    <linearGradient
       inkscape:collect="always"
       xlink:href="#linearGradient1"
       id="linearGradient2"
       x1="12.002531"
       y1="21.589314"
       x2="11.997469"
       y2="4.8500724"
       gradientUnits="userSpaceOnUse" />
  </defs>
  <sodipodi:namedview
     id="namedview2"
     pagecolor="#ffffff"
     bordercolor="#000000"
     borderopacity="0.25"
     inkscape:showpageshadow="2"
     inkscape:pageopacity="0.0"
     inkscape:pagecheckerboard="0"
     inkscape:deskcolor="#d1d1d1"
     inkscape:zoom="11.888233"
     inkscape:cx="4.9208322"
     inkscape:cy="16.402774"
     inkscape:window-width="1920"
     inkscape:window-height="1017"
     inkscape:window-x="-8"
     inkscape:window-y="-8"
     inkscape:window-maximized="1"
     inkscape:current-layer="svg2" />
  <path
     id="path2"
     style="fill:url(#linearGradient2);fill-opacity:1;stroke:#704444;stroke-width:0;stroke-dasharray:none;stroke-opacity:1"
     d="M 6.3411214,2.7083364 A 6.2442794,6.2442794 0 0 0 0.64676442,8.9304412 c 0,2.6112428 1.70298708,4.5412958 3.40597058,6.2442798 l 6.253149,6.053579 a 2.2706471,2.2706471 0 0 0 3.40597,-0.02218 l 6.235411,-6.031407 c 1.702985,-1.702984 3.405971,-3.644391 3.405971,-6.2442788 a 6.2442794,6.2442794 0 0 0 -10.056039,-4.9448675 1.1353235,1.1353235 0 0 1 0.01773,1.525591 c -0.53343,0.6018266 -0.762923,1.0648873 -1.017794,1.5411159 l 1.807205,1.8094216 c 0.655312,0.655513 0.655312,1.7526138 0,2.4081278 l -2.201908,2.201906 0.900275,0.900277 a 1.1353235,1.1353235 0 0 1 0,1.605417 1.1353235,1.1353235 0 0 1 -1.605417,0 L 9.8956544,14.675801 c -0.6553133,-0.655513 -0.6553133,-1.752613 0,-2.408128 L 12.097567,10.065765 10.055315,8.0190783 A 1.1354371,1.1354371 0 0 1 9.802527,6.7994925 C 10.106241,6.0316138 10.574009,5.2665189 11.223901,4.4667576 A 6.2442794,6.2442794 0 0 0 6.3411214,2.7083364 Z" />
</svg>
